<mxfile host="app.diagrams.net" agent="Mozilla/5.0 (Windows NT 10.0; Win64; x64) AppleWebKit/537.36 (KHTML, like Gecko) Chrome/135.0.0.0 Safari/537.36" version="26.1.1">
  <diagram id="C5RBs43oDa-KdzZeNtuy" name="Page-1">
    <mxGraphModel dx="795" dy="986" grid="1" gridSize="10" guides="1" tooltips="1" connect="1" arrows="1" fold="1" page="1" pageScale="1" pageWidth="827" pageHeight="1169" math="0" shadow="0">
      <root>
        <mxCell id="WIyWlLk6GJQsqaUBKTNV-0" />
        <mxCell id="WIyWlLk6GJQsqaUBKTNV-1" parent="WIyWlLk6GJQsqaUBKTNV-0" />
        <mxCell id="0SK2hrIgDgx4VLdHtrWu-27" value="=" style="edgeStyle=orthogonalEdgeStyle;rounded=0;orthogonalLoop=1;jettySize=auto;html=1;entryX=0.676;entryY=0.035;entryDx=0;entryDy=0;entryPerimeter=0;" edge="1" parent="WIyWlLk6GJQsqaUBKTNV-1" target="0SK2hrIgDgx4VLdHtrWu-8">
          <mxGeometry relative="1" as="geometry">
            <mxPoint x="441" y="230" as="sourcePoint" />
            <mxPoint x="441" y="320" as="targetPoint" />
          </mxGeometry>
        </mxCell>
        <mxCell id="0SK2hrIgDgx4VLdHtrWu-4" value="Pupil" style="whiteSpace=wrap;html=1;aspect=fixed;" vertex="1" parent="WIyWlLk6GJQsqaUBKTNV-1">
          <mxGeometry x="370" y="130" width="100" height="100" as="geometry" />
        </mxCell>
        <mxCell id="0SK2hrIgDgx4VLdHtrWu-5" value="Teacher" style="whiteSpace=wrap;html=1;aspect=fixed;" vertex="1" parent="WIyWlLk6GJQsqaUBKTNV-1">
          <mxGeometry x="571" y="325" width="100" height="100" as="geometry" />
        </mxCell>
        <mxCell id="0SK2hrIgDgx4VLdHtrWu-25" style="edgeStyle=orthogonalEdgeStyle;rounded=0;orthogonalLoop=1;jettySize=auto;html=1;entryX=0.349;entryY=0.964;entryDx=0;entryDy=0;entryPerimeter=0;exitX=0.318;exitY=0.003;exitDx=0;exitDy=0;exitPerimeter=0;" edge="1" parent="WIyWlLk6GJQsqaUBKTNV-1" source="0SK2hrIgDgx4VLdHtrWu-6" target="0SK2hrIgDgx4VLdHtrWu-8">
          <mxGeometry relative="1" as="geometry">
            <mxPoint x="401" y="530" as="sourcePoint" />
            <mxPoint x="401" y="440" as="targetPoint" />
          </mxGeometry>
        </mxCell>
        <mxCell id="0SK2hrIgDgx4VLdHtrWu-6" value="School Admin" style="whiteSpace=wrap;html=1;aspect=fixed;" vertex="1" parent="WIyWlLk6GJQsqaUBKTNV-1">
          <mxGeometry x="370" y="530" width="100" height="100" as="geometry" />
        </mxCell>
        <mxCell id="0SK2hrIgDgx4VLdHtrWu-7" value="Parent" style="whiteSpace=wrap;html=1;aspect=fixed;" vertex="1" parent="WIyWlLk6GJQsqaUBKTNV-1">
          <mxGeometry x="171" y="325" width="100" height="100" as="geometry" />
        </mxCell>
        <mxCell id="0SK2hrIgDgx4VLdHtrWu-14" style="edgeStyle=orthogonalEdgeStyle;rounded=0;orthogonalLoop=1;jettySize=auto;html=1;exitX=0;exitY=0;exitDx=0;exitDy=0;" edge="1" parent="WIyWlLk6GJQsqaUBKTNV-1" source="0SK2hrIgDgx4VLdHtrWu-8">
          <mxGeometry relative="1" as="geometry">
            <mxPoint x="376" y="336" as="targetPoint" />
          </mxGeometry>
        </mxCell>
        <mxCell id="0SK2hrIgDgx4VLdHtrWu-24" style="edgeStyle=orthogonalEdgeStyle;rounded=0;orthogonalLoop=1;jettySize=auto;html=1;entryX=0.718;entryY=0.003;entryDx=0;entryDy=0;exitX=0.76;exitY=0.913;exitDx=0;exitDy=0;exitPerimeter=0;entryPerimeter=0;" edge="1" parent="WIyWlLk6GJQsqaUBKTNV-1" target="0SK2hrIgDgx4VLdHtrWu-6">
          <mxGeometry relative="1" as="geometry">
            <mxPoint x="441.19999999999993" y="429.56000000000006" as="sourcePoint" />
            <mxPoint x="441" y="530" as="targetPoint" />
          </mxGeometry>
        </mxCell>
        <mxCell id="0SK2hrIgDgx4VLdHtrWu-26" style="edgeStyle=orthogonalEdgeStyle;rounded=0;orthogonalLoop=1;jettySize=auto;html=1;entryX=0.306;entryY=0.996;entryDx=0;entryDy=0;entryPerimeter=0;" edge="1" parent="WIyWlLk6GJQsqaUBKTNV-1" target="0SK2hrIgDgx4VLdHtrWu-4">
          <mxGeometry relative="1" as="geometry">
            <mxPoint x="401" y="325" as="sourcePoint" />
            <mxPoint x="401" y="235" as="targetPoint" />
            <Array as="points">
              <mxPoint x="401" y="280" />
              <mxPoint x="401" y="280" />
            </Array>
          </mxGeometry>
        </mxCell>
        <mxCell id="0SK2hrIgDgx4VLdHtrWu-8" value="Manage School Operations" style="ellipse;whiteSpace=wrap;html=1;aspect=fixed;" vertex="1" parent="WIyWlLk6GJQsqaUBKTNV-1">
          <mxGeometry x="360" y="320" width="120" height="120" as="geometry" />
        </mxCell>
        <mxCell id="0SK2hrIgDgx4VLdHtrWu-20" style="edgeStyle=orthogonalEdgeStyle;rounded=0;orthogonalLoop=1;jettySize=auto;html=1;entryX=0.024;entryY=0.554;entryDx=0;entryDy=0;entryPerimeter=0;" edge="1" parent="WIyWlLk6GJQsqaUBKTNV-1">
          <mxGeometry relative="1" as="geometry">
            <mxPoint x="478.6" y="360" as="sourcePoint" />
            <mxPoint x="571" y="360.37" as="targetPoint" />
          </mxGeometry>
        </mxCell>
        <mxCell id="0SK2hrIgDgx4VLdHtrWu-21" style="edgeStyle=orthogonalEdgeStyle;rounded=0;orthogonalLoop=1;jettySize=auto;html=1;entryX=0.974;entryY=0.456;entryDx=0;entryDy=0;entryPerimeter=0;" edge="1" parent="WIyWlLk6GJQsqaUBKTNV-1">
          <mxGeometry relative="1" as="geometry">
            <mxPoint x="571" y="400.28000000000003" as="sourcePoint" />
            <mxPoint x="476.88" y="400.00000000000006" as="targetPoint" />
          </mxGeometry>
        </mxCell>
        <mxCell id="0SK2hrIgDgx4VLdHtrWu-22" style="edgeStyle=orthogonalEdgeStyle;rounded=0;orthogonalLoop=1;jettySize=auto;html=1;" edge="1" parent="WIyWlLk6GJQsqaUBKTNV-1">
          <mxGeometry relative="1" as="geometry">
            <mxPoint x="361" y="400" as="sourcePoint" />
            <mxPoint x="271" y="400" as="targetPoint" />
          </mxGeometry>
        </mxCell>
        <mxCell id="0SK2hrIgDgx4VLdHtrWu-23" style="edgeStyle=orthogonalEdgeStyle;rounded=0;orthogonalLoop=1;jettySize=auto;html=1;entryX=0.007;entryY=0.461;entryDx=0;entryDy=0;entryPerimeter=0;" edge="1" parent="WIyWlLk6GJQsqaUBKTNV-1">
          <mxGeometry relative="1" as="geometry">
            <mxPoint x="271" y="360" as="sourcePoint" />
            <mxPoint x="360.84000000000003" y="360.31999999999994" as="targetPoint" />
          </mxGeometry>
        </mxCell>
      </root>
    </mxGraphModel>
  </diagram>
</mxfile>
